<svg width="273.3835266113281px" height="112.15997619628907px" xmlns="http://www.w3.org/2000/svg" viewBox="113.30823669433596 18.920011901855467 273.3835266113281 112.15997619628907" style="background: rgba(255, 255, 255, 0);" preserveAspectRatio="xMidYMid"><defs><filter id="editing-vintage" x="-100%" y="-100%" width="300%" height="300%"><feConvolveMatrix in="SourceGraphic" result="extrude" order="1,1" divisor="1" kernelMatrix="1"> </feConvolveMatrix><feFlood flood-color="#d72b2b" result="flood-extrude"></feFlood><feComposite operator="in" in="flood-extrude" in2="extrude" result="extrude-color"></feComposite><feOffset dx="1" dy="1" in="extrude-color" result="extrude-offset"></feOffset><feColorMatrix in="SourceGraphic" result="stroke" type="matrix" values="0 0 0 0 0 0 0 0 0 0 0 0 0 0 0 0 1 0 0 0 "></feColorMatrix><feColorMatrix in="SourceGraphic" result="fill" type="matrix" values="0 0 0 0 0 0 0 0 0 0 0 0 0 0 0 1 0 0 1 0 "></feColorMatrix><feConvolveMatrix in="stroke" result="inner-shadow" order="5,5" divisor="1" kernelMatrix="1 0 0 0 0 0 1 0 0 0 0 0 1 0 0 0 0 0 1 0 0 0 0 0 1 "></feConvolveMatrix><feOffset dx="1" dy="1" in="inner-shadow" result="offset"></feOffset><feComposite operator="in" in="offset" in2="SourceAlpha" result="comp"></feComposite><feFlood flood-color="#000" result="flood3"></feFlood><feComposite operator="in" in="flood3" in2="comp" result="comp2"></feComposite><feColorMatrix in="comp2" result="comp3" type="matrix" values="1 0 0 0 0 0 1 0 0 0 0 0 1 0 0 0 0 0 0.5 0 "></feColorMatrix><feFlood flood-color="#1aa400" result="flood1"></feFlood><feComposite operator="in" in="flood1" in2="fill" result="fill2"></feComposite><feFlood flood-color="#fff" result="flood2"></feFlood><feComposite operator="in" in="flood2" in2="stroke" result="stroke2"></feComposite><feMerge result="obj"><feMergeNode in="extrude-offset"></feMergeNode><feMergeNode in="fill2"></feMergeNode><feMergeNode in="comp3"></feMergeNode></feMerge><feConvolveMatrix in="SourceAlpha" result="shadow" order="1,1" divisor="1" kernelMatrix="1"></feConvolveMatrix><feOffset dx="3" dy="3" in="shadow" result="shadow-offset"></feOffset><feFlood flood-color="#fd0000" result="flood-shadow"></feFlood><feComposite operator="in" in="flood-shadow" in2="shadow-offset" result="shadow-color"></feComposite><feMerge><feMergeNode in="shadow-color"></feMergeNode><feMergeNode in="obj"></feMergeNode></feMerge></filter></defs><g transform="translate(-1,-1)"><g filter="url(#editing-vintage)"><g transform="translate(158.58136504888535, 98.74000358581543)"><path d="M10.88-2.11L-0.19 0.06L-0.19 0.06Q1.73-8.58 3.46-16.83L3.46-16.83L3.46-16.83Q4.16-20.29 4.93-24.13L4.93-24.13L4.93-24.13Q5.70-27.97 6.40-31.68L6.40-31.68L6.40-31.68Q7.10-35.39 7.74-38.85L7.74-38.85L7.74-38.85Q8.38-42.30 8.83-45.18L8.83-45.18L8.83-45.18Q10.69-45.76 12.48-46.18L12.48-46.18L12.48-46.18Q14.27-46.59 16.16-46.91L16.16-46.91L16.16-46.91Q18.05-47.23 19.71-47.23L19.71-47.23L19.71-47.23Q22.59-47.23 24.54-46.27L24.54-46.27L24.54-46.27Q26.50-45.31 27.71-43.68L27.71-43.68L27.71-43.68Q28.93-42.05 29.44-39.87L29.44-39.87L29.44-39.87Q29.95-37.70 29.95-35.20L29.95-35.20L29.95-35.20Q29.95-31.62 28.64-28.29L28.64-28.29L28.64-28.29Q27.33-24.96 25.12-22.37L25.12-22.37L25.12-22.37Q22.91-19.78 20.06-18.24L20.06-18.24L20.06-18.24Q17.22-16.70 14.14-16.70L14.14-16.70L13.44-16.70L13.44-16.70Q12.93-14.53 12.48-11.97L12.48-11.97L12.48-11.97Q12.03-9.41 11.71-7.23L11.71-7.23L11.71-7.23Q11.26-4.67 10.88-2.11L10.88-2.11ZM17.66-39.49L17.66-39.49Q16.96-35.26 16.26-31.49L16.26-31.49L16.26-31.49Q15.55-27.71 14.72-23.42L14.72-23.42L14.72-23.42Q15.74-23.68 16.86-24.61L16.86-24.61L16.86-24.61Q17.98-25.54 18.94-27.04L18.94-27.04L18.94-27.04Q19.90-28.54 20.48-30.53L20.48-30.53L20.48-30.53Q21.06-32.51 21.06-34.69L21.06-34.69L21.06-34.69Q21.06-37.06 20-38.27L20-38.27L20-38.27Q18.94-39.49 17.66-39.49L17.66-39.49ZM34.37-1.28L34.37-1.28Q33.79-1.28 32.13-1.12L32.13-1.12L32.13-1.12Q30.46-0.96 28.67-0.74L28.67-0.74L28.67-0.74Q26.88-0.51 25.44-0.32L25.44-0.32L25.44-0.32Q24-0.13 23.87-0.06L23.87-0.06L23.87-0.06Q24.64-2.82 25.41-6.18L25.41-6.18L25.41-6.18Q26.18-9.54 26.98-13.22L26.98-13.22L26.98-13.22Q27.78-16.90 28.51-20.67L28.51-20.67L28.51-20.67Q29.25-24.45 29.95-27.97L29.95-27.97L29.95-27.97Q31.55-36.16 33.09-44.80L33.09-44.80L43.07-46.40L43.07-46.40Q41.41-37.82 39.74-29.57L39.74-29.57L39.74-29.57Q39.04-26.05 38.30-22.27L38.30-22.27L38.30-22.27Q37.57-18.50 36.90-14.78L36.90-14.78L36.90-14.78Q36.22-11.07 35.55-7.58L35.55-7.58L35.55-7.58Q34.88-4.10 34.37-1.28L34.37-1.28ZM64.64-2.56L64.64-2.56Q64.06-2.56 62.21-2.50L62.21-2.50L62.21-2.50Q60.35-2.43 57.82-2.30L57.82-2.30L57.82-2.30Q55.30-2.18 52.35-1.98L52.35-1.98L52.35-1.98Q49.41-1.79 46.59-1.57L46.59-1.57L46.59-1.57Q43.78-1.34 41.38-1.09L41.38-1.09L41.38-1.09Q38.98-0.83 37.57-0.58L37.57-0.58L37.63-9.92L55.81-34.69L55.81-34.69Q54.72-34.69 52.74-34.46L52.74-34.46L52.74-34.46Q50.75-34.24 48.74-33.98L48.74-33.98L48.74-33.98Q46.72-33.73 45.25-33.47L45.25-33.47L43.71-33.34L44.93-43.39L71.10-45.25L69.44-36.42L51.97-11.58L51.97-11.58Q53.25-11.58 55.39-11.71L55.39-11.71L55.39-11.71Q57.54-11.84 59.84-11.97L59.84-11.97L59.84-11.97Q62.14-12.10 64.83-12.29L64.83-12.29L64.64-2.56ZM92.22-2.56L92.22-2.56Q91.65-2.56 89.79-2.50L89.79-2.50L89.79-2.50Q87.94-2.43 85.41-2.30L85.41-2.30L85.41-2.30Q82.88-2.18 79.94-1.98L79.94-1.98L79.94-1.98Q76.99-1.79 74.18-1.57L74.18-1.57L74.18-1.57Q71.36-1.34 68.96-1.09L68.96-1.09L68.96-1.09Q66.56-0.83 65.15-0.58L65.15-0.58L65.22-9.92L83.39-34.69L83.39-34.69Q82.30-34.69 80.32-34.46L80.32-34.46L80.32-34.46Q78.34-34.24 76.32-33.98L76.32-33.98L76.32-33.98Q74.30-33.73 72.83-33.47L72.83-33.47L71.30-33.34L72.51-43.39L98.69-45.25L97.02-36.42L79.55-11.58L79.55-11.58Q80.83-11.58 82.98-11.71L82.98-11.71L82.98-11.71Q85.12-11.84 87.42-11.97L87.42-11.97L87.42-11.97Q89.73-12.10 92.42-12.29L92.42-12.29L92.22-2.56ZM113.41-3.14L92.74 0.06L101.12-45.44L121.34-47.17L121.34-47.17Q120.90-45.76 120.58-44.29L120.58-44.29L120.58-44.29Q120.26-43.07 119.97-41.76L119.97-41.76L119.97-41.76Q119.68-40.45 119.49-39.42L119.49-39.42L119.49-39.42Q118.85-39.36 117.66-39.33L117.66-39.33L117.66-39.33Q116.48-39.30 115.14-39.26L115.14-39.26L115.14-39.26Q113.79-39.23 112.42-39.23L112.42-39.23L112.42-39.23Q111.04-39.23 110.02-39.23L110.02-39.23L107.78-27.78L107.78-27.78Q109.76-27.90 111.49-27.97L111.49-27.97L111.49-27.97Q112.90-28.03 114.37-28.03L114.37-28.03L114.37-28.03Q115.84-28.03 116.54-28.10L116.54-28.10L116.54-28.10Q116.29-26.30 116.06-24.58L116.06-24.58L116.06-24.58Q115.84-22.85 115.52-21.06L115.52-21.06L115.52-21.06Q114.88-20.99 113.44-20.96L113.44-20.96L113.44-20.96Q112-20.93 110.53-20.86L110.53-20.86L110.53-20.86Q108.86-20.80 106.88-20.74L106.88-20.74L104.70-8.96L114.05-10.43L113.41-3.14ZM124.67-2.62L114.30 0.06L114.30 0.06Q116.03-8.45 117.63-16.58L117.63-16.58L117.63-16.58Q118.21-20.03 118.91-23.78L118.91-23.78L118.91-23.78Q119.62-27.52 120.22-31.20L120.22-31.20L120.22-31.20Q120.83-34.88 121.38-38.30L121.38-38.30L121.38-38.30Q121.92-41.73 122.24-44.54L122.24-44.54L122.24-44.54Q125.89-45.70 130.11-46.24L130.11-46.24L130.11-46.24Q134.34-46.78 138.50-46.78L138.50-46.78L138.50-46.78Q140.99-46.78 142.62-46.21L142.62-46.21L142.62-46.21Q144.26-45.63 145.18-44.58L145.18-44.58L145.18-44.58Q146.11-43.52 146.50-42.11L146.50-42.11L146.50-42.11Q146.88-40.70 146.88-38.98L146.88-38.98L146.88-38.98Q146.88-36.42 145.98-33.95L145.98-33.95L145.98-33.95Q145.09-31.49 143.58-29.28L143.58-29.28L143.58-29.28Q142.08-27.07 140.13-25.25L140.13-25.25L140.13-25.25Q138.18-23.42 135.94-22.27L135.94-22.27L135.94-22.27Q137.09-19.71 138.40-16.67L138.40-16.67L138.40-16.67Q139.71-13.63 140.86-10.88L140.86-10.88L140.86-10.88Q142.14-7.68 143.49-4.48L143.49-4.48L133.57-1.02L133.57-1.02Q132.29-5.44 131.26-9.34L131.26-9.34L131.26-9.34Q130.82-10.94 130.37-12.64L130.37-12.64L130.37-12.64Q129.92-14.34 129.54-15.84L129.54-15.84L129.54-15.84Q129.15-17.34 128.90-18.50L128.90-18.50L128.90-18.50Q128.64-19.65 128.58-20.29L128.58-20.29L127.74-20.03L127.74-20.03Q127.36-17.98 126.82-15.04L126.82-15.04L126.82-15.04Q126.27-12.10 125.82-9.34L125.82-9.34L125.82-9.34Q125.25-6.08 124.67-2.62L124.67-2.62ZM131.39-37.89L129.34-27.71L129.34-27.71Q130.56-27.84 132.32-28.74L132.32-28.74L132.32-28.74Q134.08-29.63 135.68-30.88L135.68-30.88L135.68-30.88Q137.28-32.13 138.43-33.47L138.43-33.47L138.43-33.47Q139.58-34.82 139.58-35.84L139.58-35.84L139.58-35.84Q139.58-36.54 139.14-36.96L139.14-36.96L139.14-36.96Q138.69-37.38 137.89-37.60L137.89-37.60L137.89-37.60Q137.09-37.82 136.13-37.89L136.13-37.89L136.13-37.89Q135.17-37.95 134.14-37.95L134.14-37.95L134.14-37.95Q133.44-37.95 132.70-37.92L132.70-37.92L132.70-37.92Q131.97-37.89 131.39-37.89L131.39-37.89ZM152.58-1.28L152.58-1.28Q152-1.28 150.34-1.12L150.34-1.12L150.34-1.12Q148.67-0.96 146.88-0.74L146.88-0.74L146.88-0.74Q145.09-0.51 143.65-0.32L143.65-0.32L143.65-0.32Q142.21-0.13 142.08-0.06L142.08-0.06L142.08-0.06Q142.85-2.82 143.62-6.18L143.62-6.18L143.62-6.18Q144.38-9.54 145.18-13.22L145.18-13.22L145.18-13.22Q145.98-16.90 146.72-20.67L146.72-20.67L146.72-20.67Q147.46-24.45 148.16-27.97L148.16-27.97L148.16-27.97Q149.76-36.16 151.30-44.80L151.30-44.80L161.28-46.40L161.28-46.40Q159.62-37.82 157.95-29.57L157.95-29.57L157.95-29.57Q157.25-26.05 156.51-22.27L156.51-22.27L156.51-22.27Q155.78-18.50 155.10-14.78L155.10-14.78L155.10-14.78Q154.43-11.07 153.76-7.58L153.76-7.58L153.76-7.58Q153.09-4.10 152.58-1.28L152.58-1.28ZM178.82-1.28L178.82-1.28Q177.22-1.02 175.30-0.70L175.30-0.70L175.30-0.70Q173.38-0.38 171.84-0.13L171.84-0.13L171.84-0.13Q172.10-2.24 172.35-4.29L172.35-4.29L172.35-4.29Q172.54-6.08 172.70-7.87L172.70-7.87L172.70-7.87Q172.86-9.66 172.99-10.94L172.99-10.94L167.42-10.94L164.86-1.73L164.86-1.73Q163.46-1.54 161.54-1.31L161.54-1.31L161.54-1.31Q159.62-1.09 157.95-0.90L157.95-0.90L157.95-0.90Q155.90-0.64 153.92-0.38L153.92-0.38L153.92-0.38Q156.48-8.90 158.98-17.15L158.98-17.15L158.98-17.15Q160-20.61 161.12-24.38L161.12-24.38L161.12-24.38Q162.24-28.16 163.36-31.90L163.36-31.90L163.36-31.90Q164.48-35.65 165.50-39.10L165.50-39.10L165.50-39.10Q166.53-42.56 167.30-45.44L167.30-45.44L167.30-45.44Q171.65-45.76 176.16-46.21L176.16-46.21L176.16-46.21Q180.67-46.66 184.96-47.42L184.96-47.42L184.96-47.42Q184.77-45.38 184.54-42.34L184.54-42.34L184.54-42.34Q184.32-39.30 184.13-35.71L184.13-35.71L184.13-35.71Q183.94-32.13 183.74-28.22L183.74-28.22L183.74-28.22Q183.55-24.32 183.36-20.54L183.36-20.54L183.36-20.54Q183.04-11.71 182.66-1.79L182.66-1.79L182.66-1.79Q180.74-1.47 178.82-1.28L178.82-1.28ZM172.93-33.41L168.96-17.34L168.96-17.34Q169.22-17.34 169.89-17.38L169.89-17.38L169.89-17.38Q170.56-17.41 171.30-17.44L171.30-17.44L171.30-17.44Q172.03-17.47 172.67-17.50L172.67-17.50L172.67-17.50Q173.31-17.54 173.57-17.60L173.57-17.60L173.57-17.60Q173.57-17.98 173.66-18.91L173.66-18.91L173.66-18.91Q173.76-19.84 173.86-21.02L173.86-21.02L173.86-21.02Q173.95-22.21 174.08-23.62L174.08-23.62L174.08-23.62Q174.21-25.02 174.34-26.37L174.34-26.37L174.34-26.37Q174.59-29.63 174.98-33.41L174.98-33.41L175.36-38.98L174.40-38.91L172.93-33.41Z" fill="#f00" stroke="#0f0" stroke-width="1.8"></path></g></g><g><g transform="translate(158.55610412359238, 98.73999977111816)"><path d="M10.88-2.11L-0.19 0.06L-0.19 0.06Q1.73-8.58 3.46-16.83L3.46-16.83L3.46-16.83Q4.16-20.29 4.93-24.13L4.93-24.13L4.93-24.13Q5.70-27.97 6.40-31.68L6.40-31.68L6.40-31.68Q7.10-35.39 7.74-38.85L7.74-38.85L7.74-38.85Q8.38-42.30 8.83-45.18L8.83-45.18L8.83-45.18Q10.69-45.76 12.48-46.18L12.48-46.18L12.48-46.18Q14.27-46.59 16.16-46.91L16.16-46.91L16.16-46.91Q18.05-47.23 19.71-47.23L19.71-47.23L19.71-47.23Q22.59-47.23 24.54-46.27L24.54-46.27L24.54-46.27Q26.50-45.31 27.71-43.68L27.71-43.68L27.71-43.68Q28.93-42.05 29.44-39.87L29.44-39.87L29.44-39.87Q29.95-37.70 29.95-35.20L29.95-35.20L29.95-35.20Q29.95-31.62 28.64-28.29L28.64-28.29L28.64-28.29Q27.33-24.96 25.12-22.37L25.12-22.37L25.12-22.37Q22.91-19.78 20.06-18.24L20.06-18.24L20.06-18.24Q17.22-16.70 14.14-16.70L14.14-16.70L13.44-16.70L13.44-16.70Q12.93-14.53 12.48-11.97L12.48-11.97L12.48-11.97Q12.03-9.41 11.71-7.23L11.71-7.23L11.71-7.23Q11.26-4.67 10.88-2.11L10.88-2.11ZM17.66-39.49L17.66-39.49Q16.96-35.26 16.26-31.49L16.26-31.49L16.26-31.49Q15.55-27.71 14.72-23.42L14.72-23.42L14.72-23.42Q15.74-23.68 16.86-24.61L16.86-24.61L16.86-24.61Q17.98-25.54 18.94-27.04L18.94-27.04L18.94-27.04Q19.90-28.54 20.48-30.53L20.48-30.53L20.48-30.53Q21.06-32.51 21.06-34.69L21.06-34.69L21.06-34.69Q21.06-37.06 20-38.27L20-38.27L20-38.27Q18.94-39.49 17.66-39.49L17.66-39.49ZM34.37-1.28L34.37-1.28Q33.79-1.28 32.13-1.12L32.13-1.12L32.13-1.12Q30.46-0.96 28.67-0.74L28.67-0.74L28.67-0.74Q26.88-0.51 25.44-0.32L25.44-0.32L25.44-0.32Q24-0.13 23.87-0.06L23.87-0.06L23.87-0.06Q24.64-2.82 25.41-6.18L25.41-6.18L25.41-6.18Q26.18-9.54 26.98-13.22L26.98-13.22L26.98-13.22Q27.78-16.90 28.51-20.67L28.51-20.67L28.51-20.67Q29.25-24.45 29.95-27.97L29.95-27.97L29.95-27.97Q31.55-36.16 33.09-44.80L33.09-44.80L43.07-46.40L43.07-46.40Q41.41-37.82 39.74-29.57L39.74-29.57L39.74-29.57Q39.04-26.05 38.30-22.27L38.30-22.27L38.30-22.27Q37.57-18.50 36.90-14.78L36.90-14.78L36.90-14.78Q36.22-11.07 35.55-7.58L35.55-7.58L35.55-7.58Q34.88-4.10 34.37-1.28L34.37-1.28ZM64.64-2.56L64.64-2.56Q64.06-2.56 62.21-2.50L62.21-2.50L62.21-2.50Q60.35-2.43 57.82-2.30L57.82-2.30L57.82-2.30Q55.30-2.18 52.35-1.98L52.35-1.98L52.35-1.98Q49.41-1.79 46.59-1.57L46.59-1.57L46.59-1.57Q43.78-1.34 41.38-1.09L41.38-1.09L41.38-1.09Q38.98-0.83 37.57-0.58L37.57-0.58L37.63-9.92L55.81-34.69L55.81-34.69Q54.72-34.69 52.74-34.46L52.74-34.46L52.74-34.46Q50.75-34.24 48.74-33.98L48.74-33.98L48.74-33.98Q46.72-33.73 45.25-33.47L45.25-33.47L43.71-33.34L44.93-43.39L71.10-45.25L69.44-36.42L51.97-11.58L51.97-11.58Q53.25-11.58 55.39-11.71L55.39-11.71L55.39-11.71Q57.54-11.84 59.84-11.97L59.84-11.97L59.84-11.97Q62.14-12.10 64.83-12.29L64.83-12.29L64.64-2.56ZM92.22-2.56L92.22-2.56Q91.65-2.56 89.79-2.50L89.79-2.50L89.79-2.50Q87.94-2.43 85.41-2.30L85.41-2.30L85.41-2.30Q82.88-2.18 79.94-1.98L79.94-1.98L79.94-1.98Q76.99-1.79 74.18-1.57L74.18-1.57L74.18-1.57Q71.36-1.34 68.96-1.09L68.96-1.09L68.96-1.09Q66.56-0.83 65.15-0.58L65.15-0.58L65.22-9.92L83.39-34.69L83.39-34.69Q82.30-34.69 80.32-34.46L80.32-34.46L80.32-34.46Q78.34-34.24 76.32-33.98L76.32-33.98L76.32-33.98Q74.30-33.73 72.83-33.47L72.83-33.47L71.30-33.34L72.51-43.39L98.69-45.25L97.02-36.42L79.55-11.58L79.55-11.58Q80.83-11.58 82.98-11.71L82.98-11.71L82.98-11.71Q85.12-11.84 87.42-11.97L87.42-11.97L87.42-11.97Q89.73-12.10 92.42-12.29L92.42-12.29L92.22-2.56ZM113.41-3.14L92.74 0.06L101.12-45.44L121.34-47.17L121.34-47.17Q120.90-45.76 120.58-44.29L120.58-44.29L120.58-44.29Q120.26-43.07 119.97-41.76L119.97-41.76L119.97-41.76Q119.68-40.45 119.49-39.42L119.49-39.42L119.49-39.42Q118.85-39.36 117.66-39.33L117.66-39.33L117.66-39.33Q116.48-39.30 115.14-39.26L115.14-39.26L115.14-39.26Q113.79-39.23 112.42-39.23L112.42-39.23L112.42-39.23Q111.04-39.23 110.02-39.23L110.02-39.23L107.78-27.78L107.78-27.78Q109.76-27.90 111.49-27.97L111.49-27.97L111.49-27.97Q112.90-28.03 114.37-28.03L114.37-28.03L114.37-28.03Q115.84-28.03 116.54-28.10L116.54-28.10L116.54-28.10Q116.29-26.30 116.06-24.58L116.06-24.58L116.06-24.58Q115.84-22.85 115.52-21.06L115.52-21.06L115.52-21.06Q114.88-20.99 113.44-20.96L113.44-20.96L113.44-20.96Q112-20.93 110.53-20.86L110.53-20.86L110.53-20.86Q108.86-20.80 106.88-20.74L106.88-20.74L104.70-8.96L114.05-10.43L113.41-3.14ZM124.67-2.62L114.30 0.06L114.30 0.06Q116.03-8.45 117.63-16.58L117.63-16.58L117.63-16.58Q118.21-20.03 118.91-23.78L118.91-23.78L118.91-23.78Q119.62-27.52 120.22-31.20L120.22-31.20L120.22-31.20Q120.83-34.88 121.38-38.30L121.38-38.30L121.38-38.30Q121.92-41.73 122.24-44.54L122.24-44.54L122.24-44.54Q125.89-45.70 130.11-46.24L130.11-46.24L130.11-46.24Q134.34-46.78 138.50-46.78L138.50-46.78L138.50-46.78Q140.99-46.78 142.62-46.21L142.62-46.21L142.62-46.21Q144.26-45.63 145.18-44.58L145.18-44.58L145.18-44.58Q146.11-43.52 146.50-42.11L146.50-42.11L146.50-42.11Q146.88-40.70 146.88-38.98L146.88-38.98L146.88-38.98Q146.88-36.42 145.98-33.95L145.98-33.95L145.98-33.95Q145.09-31.49 143.58-29.28L143.58-29.28L143.58-29.28Q142.08-27.07 140.13-25.25L140.13-25.25L140.13-25.25Q138.18-23.42 135.94-22.27L135.94-22.27L135.94-22.27Q137.09-19.71 138.40-16.67L138.40-16.67L138.40-16.67Q139.71-13.63 140.86-10.88L140.86-10.88L140.86-10.88Q142.14-7.68 143.49-4.48L143.49-4.48L133.57-1.02L133.57-1.02Q132.29-5.44 131.26-9.34L131.26-9.34L131.26-9.34Q130.82-10.94 130.37-12.64L130.37-12.64L130.37-12.64Q129.92-14.34 129.54-15.84L129.54-15.84L129.54-15.84Q129.15-17.34 128.90-18.50L128.90-18.50L128.90-18.50Q128.64-19.65 128.58-20.29L128.58-20.29L127.74-20.03L127.74-20.03Q127.36-17.98 126.82-15.04L126.82-15.04L126.82-15.04Q126.27-12.10 125.82-9.34L125.82-9.34L125.82-9.34Q125.25-6.08 124.67-2.62L124.67-2.62ZM131.39-37.89L129.34-27.71L129.34-27.71Q130.56-27.84 132.32-28.74L132.32-28.74L132.32-28.74Q134.08-29.63 135.68-30.88L135.68-30.88L135.68-30.88Q137.28-32.13 138.43-33.47L138.43-33.47L138.43-33.47Q139.58-34.82 139.58-35.84L139.58-35.84L139.58-35.84Q139.58-36.54 139.14-36.96L139.14-36.96L139.14-36.96Q138.69-37.38 137.89-37.60L137.89-37.60L137.89-37.60Q137.09-37.82 136.13-37.89L136.13-37.89L136.13-37.89Q135.17-37.95 134.14-37.95L134.14-37.95L134.14-37.95Q133.44-37.95 132.70-37.92L132.70-37.92L132.70-37.92Q131.97-37.89 131.39-37.89L131.39-37.89ZM152.58-1.28L152.58-1.28Q152-1.28 150.34-1.12L150.34-1.12L150.34-1.12Q148.67-0.96 146.88-0.74L146.88-0.74L146.88-0.74Q145.09-0.51 143.65-0.32L143.65-0.32L143.65-0.32Q142.21-0.13 142.08-0.06L142.08-0.06L142.08-0.06Q142.85-2.82 143.62-6.18L143.62-6.18L143.62-6.18Q144.38-9.54 145.18-13.22L145.18-13.22L145.18-13.22Q145.98-16.90 146.72-20.67L146.72-20.67L146.72-20.67Q147.46-24.45 148.16-27.97L148.16-27.97L148.16-27.97Q149.76-36.16 151.30-44.80L151.30-44.80L161.28-46.40L161.28-46.40Q159.62-37.82 157.95-29.57L157.95-29.57L157.95-29.57Q157.25-26.05 156.51-22.27L156.51-22.27L156.51-22.27Q155.78-18.50 155.10-14.78L155.10-14.78L155.10-14.78Q154.43-11.07 153.76-7.58L153.76-7.58L153.76-7.58Q153.09-4.10 152.58-1.28L152.58-1.28ZM178.82-1.28L178.82-1.28Q177.22-1.02 175.30-0.70L175.30-0.70L175.30-0.70Q173.38-0.38 171.84-0.13L171.84-0.13L171.84-0.13Q172.10-2.24 172.35-4.29L172.35-4.29L172.35-4.29Q172.54-6.08 172.70-7.87L172.70-7.87L172.70-7.87Q172.86-9.66 172.99-10.94L172.99-10.94L167.42-10.94L164.86-1.73L164.86-1.73Q163.46-1.54 161.54-1.31L161.54-1.31L161.54-1.31Q159.62-1.09 157.95-0.90L157.95-0.90L157.95-0.90Q155.90-0.64 153.92-0.38L153.92-0.38L153.92-0.38Q156.48-8.90 158.98-17.15L158.98-17.15L158.98-17.15Q160-20.61 161.12-24.38L161.12-24.38L161.12-24.38Q162.24-28.16 163.36-31.90L163.36-31.90L163.36-31.90Q164.48-35.65 165.50-39.10L165.50-39.10L165.50-39.10Q166.53-42.56 167.30-45.44L167.30-45.44L167.30-45.44Q171.65-45.76 176.16-46.21L176.16-46.21L176.16-46.21Q180.67-46.66 184.96-47.42L184.96-47.42L184.96-47.42Q184.77-45.38 184.54-42.34L184.54-42.34L184.54-42.34Q184.32-39.30 184.13-35.71L184.13-35.71L184.13-35.71Q183.94-32.13 183.74-28.22L183.74-28.22L183.74-28.22Q183.55-24.32 183.36-20.54L183.36-20.54L183.36-20.54Q183.04-11.71 182.66-1.79L182.66-1.79L182.66-1.79Q180.74-1.47 178.82-1.28L178.82-1.28ZM172.93-33.41L168.96-17.34L168.96-17.34Q169.22-17.34 169.89-17.38L169.89-17.38L169.89-17.38Q170.56-17.41 171.30-17.44L171.30-17.44L171.30-17.44Q172.03-17.47 172.67-17.50L172.67-17.50L172.67-17.50Q173.31-17.54 173.57-17.60L173.57-17.60L173.57-17.60Q173.57-17.98 173.66-18.91L173.66-18.91L173.66-18.91Q173.76-19.84 173.86-21.02L173.86-21.02L173.86-21.02Q173.95-22.21 174.08-23.62L174.08-23.62L174.08-23.62Q174.21-25.02 174.34-26.37L174.34-26.37L174.34-26.37Q174.59-29.63 174.98-33.41L174.98-33.41L175.36-38.98L174.40-38.91L172.93-33.41Z" fill="none" stroke="#fff" stroke-width="2.1"></path></g></g></g><style>text {
  font-size: 64px;
  font-family: Arial Black;
  dominant-baseline: central;
  text-anchor: middle;
}</style></svg>